name Run_400 01_newCOP3_v24.mot
datacolumns 19
datarows 15
range 4.34583300 4.36041700
endheader
                time	   R_ground_force_vx	   R_ground_force_vy	   R_ground_force_vz	   R_ground_force_px	   R_ground_force_py	   R_ground_force_pz	   L_ground_force_vx	   L_ground_force_vy	   L_ground_force_vz	   L_ground_force_px	   L_ground_force_py	   L_ground_force_pz	   R_ground_torque_x	   R_ground_torque_y	   R_ground_torque_z	   L_ground_torque_x	   L_ground_torque_y	   L_ground_torque_z	
          4.34583300	          0.00000000	          0.00000000	          0.00000000	          0.00000000	          0.00000000	          0.00000000	       -198.24440000	       1174.73315400	         12.69683700	          0.82362500	          0.00000000	         -0.42678500	          0.00000000	          0.00000000	          0.00000000	          0.00000000	         -0.80102800	          0.00000000	
          4.34687500	          0.00000000	          0.00000000	          0.00000000	          0.00000000	          0.00000000	          0.00000000	       -203.33221400	       1190.84484900	         13.31521500	          0.82180800	          0.00000000	         -0.42723200	          0.00000000	          0.00000000	          0.00000000	          0.00000000	         -0.85968100	          0.00000000	
          4.34791700	          0.00000000	          0.00000000	          0.00000000	          0.00000000	          0.00000000	          0.00000000	       -208.19671600	       1207.16052200	         14.10085900	          0.81995400	          0.00000000	         -0.42761600	          0.00000000	          0.00000000	          0.00000000	          0.00000000	         -0.92294800	          0.00000000	
          4.34895800	          0.00000000	          0.00000000	          0.00000000	          0.00000000	          0.00000000	          0.00000000	       -212.76495400	       1223.67944300	         15.05623200	          0.81805000	          0.00000000	         -0.42793300	          0.00000000	          0.00000000	          0.00000000	          0.00000000	         -0.99093900	          0.00000000	
          4.35000000	          0.00000000	          0.00000000	          0.00000000	          0.00000000	          0.00000000	          0.00000000	       -216.96756000	       1240.39135700	         16.18059000	          0.81608300	          0.00000000	         -0.42818500	          0.00000000	          0.00000000	          0.00000000	          0.00000000	         -1.06372200	          0.00000000	
          4.35104200	          0.00000000	          0.00000000	          0.00000000	          0.00000000	          0.00000000	          0.00000000	       -220.74029500	       1257.27722200	         17.46999400	          0.81404000	          0.00000000	         -0.42837300	          0.00000000	          0.00000000	          0.00000000	          0.00000000	         -1.14133000	          0.00000000	
          4.35208300	          0.00000000	          0.00000000	          0.00000000	          0.00000000	          0.00000000	          0.00000000	       -224.02542100	       1274.30920400	         18.91741800	          0.81191200	          0.00000000	         -0.42850200	          0.00000000	          0.00000000	          0.00000000	          0.00000000	         -1.22375800	          0.00000000	
          4.35312500	          0.00000000	          0.00000000	          0.00000000	          0.00000000	          0.00000000	          0.00000000	       -226.77284200	       1291.45190400	         20.51292200	          0.80969000	          0.00000000	         -0.42857700	          0.00000000	          0.00000000	          0.00000000	          0.00000000	         -1.31096400	          0.00000000	
          4.35416700	          0.00000000	          0.00000000	          0.00000000	          0.00000000	          0.00000000	          0.00000000	       -228.94099400	       1308.66345200	         22.24389600	          0.80736500	          0.00000000	         -0.42860300	          0.00000000	          0.00000000	          0.00000000	          0.00000000	         -1.40286800	          0.00000000	
          4.35520800	          0.00000000	          0.00000000	          0.00000000	          0.00000000	          0.00000000	          0.00000000	       -230.49737500	       1325.89636200	         24.09537900	          0.80493400	          0.00000000	         -0.42859000	          0.00000000	          0.00000000	          0.00000000	          0.00000000	         -1.49935600	          0.00000000	
          4.35625000	          0.00000000	          0.00000000	          0.00000000	          0.00000000	          0.00000000	          0.00000000	       -231.41882300	       1343.09924300	         26.05041700	          0.80239200	          0.00000000	         -0.42854400	          0.00000000	          0.00000000	          0.00000000	          0.00000000	         -1.60027900	          0.00000000	
          4.35729200	          0.00000000	          0.00000000	          0.00000000	          0.00000000	          0.00000000	          0.00000000	       -231.69143700	       1360.21838400	         28.09048500	          0.79974000	          0.00000000	         -0.42847500	          0.00000000	          0.00000000	          0.00000000	          0.00000000	         -1.70545700	          0.00000000	
          4.35833300	          0.00000000	          0.00000000	          0.00000000	          0.00000000	          0.00000000	          0.00000000	       -231.31027200	       1377.19836400	         30.19591500	          0.79697900	          0.00000000	         -0.42839000	          0.00000000	          0.00000000	          0.00000000	          0.00000000	         -1.81468100	          0.00000000	
          4.35937500	          0.00000000	          0.00000000	          0.00000000	          0.00000000	          0.00000000	          0.00000000	       -230.27887000	       1393.98425300	         32.34636700	          0.79411000	          0.00000000	         -0.42829800	          0.00000000	          0.00000000	          0.00000000	          0.00000000	         -1.92771200	          0.00000000	
          4.36041700	          0.00000000	          0.00000000	          0.00000000	          0.00000000	          0.00000000	          0.00000000	       -228.60850500	       1410.52246100	         34.52129400	          0.79113900	          0.00000000	         -0.42820700	          0.00000000	          0.00000000	          0.00000000	          0.00000000	         -2.04429100	          0.00000000	
